<?xml version="1.0" encoding="UTF-8"?>
<svg width="100px" height="100px" viewBox="0 0 100 100" version="1.1" xmlns="http://www.w3.org/2000/svg" xmlns:xlink="http://www.w3.org/1999/xlink">
    <title>icons/Exclamation</title>
    <defs>
        <path d="M65.25,84.375 C65.25,92.990625 58.240625,100 49.625,100 C41.009375,100 34,92.990625 34,84.375 C34,75.759375 41.009375,68.75 49.625,68.75 C58.240625,68.75 65.25,75.759375 65.25,84.375 Z M35.8085938,4.92167969 L38.4648438,58.0466797 C38.5896484,60.5414063 40.6486328,62.5 43.1464844,62.5 L56.1035156,62.5 C58.6013672,62.5 60.6603516,60.5414063 60.7851562,58.0466797 L63.4414062,4.92167969 C63.5751953,2.24414062 61.440625,0 58.7597656,0 L40.4902344,0 C37.809375,0 35.6748047,2.24414062 35.8085938,4.92167969 Z" id="path-1"></path>
    </defs>
    <g id="icons/Exclamation" stroke="none" stroke-width="1" fill="none" fill-rule="evenodd">
        <mask id="mask-2" fill="white">
            <use xlink:href="#path-1"></use>
        </mask>
        <use id="Shape" fill="#000000" fill-rule="nonzero" xlink:href="#path-1"></use>
        <rect id="Color" fill="#DE411B" mask="url(#mask-2)" x="0" y="0" width="100" height="100"></rect>
    </g>
</svg>